{"title":"The Substitute (2007) [DvdRip] [Xvid] {1337x}-Noir","uid":4444107,"size":746948494,"categoryP":"video","categoryS":"movies","magnet":"?xt=urn:btih:8f7b0f85fe3b0956c3ba4cc8516b6661a0d97d6d&amp;dn=The+Substitute+%282007%29+%5BDvdRip%5D+%5BXvid%5D+%7B1337x%7D-Noir&amp;tr=udp%3A%2F%2Ftracker.openbittorrent.com%3A80&amp;tr=udp%3A%2F%2Fopen.demonii.com%3A1337&amp;tr=udp%3A%2F%2Ftracker.coppersurfer.tk%3A6969&amp;tr=udp%3A%2F%2Fexodus.desync.com%3A6969","seeders":1,"leechers":1,"uploader":"INoirI","files":5,"time":1223955548,"description":"                             Screenshots\n &lt;a href=&quot;\nhttp://i220.photobucket.com/albums/dd94/ItheplagueI/1-25.jpg&quot; rel=&quot;nofollow&quot; target=&quot;_NEW&quot;&gt;\nhttp://i220.photobucket.com/albums/dd94/ItheplagueI/1-25.jpg&lt;/a&gt;\n &lt;a href=&quot;\nhttp://i220.photobucket.com/albums/dd94/ItheplagueI/3-18.jpg&quot; rel=&quot;nofollow&quot; target=&quot;_NEW&quot;&gt;\nhttp://i220.photobucket.com/albums/dd94/ItheplagueI/3-18.jpg&lt;/a&gt;\n &lt;a href=&quot;\nhttp://i220.photobucket.com/albums/dd94/ItheplagueI/4-18.jpg&quot; rel=&quot;nofollow&quot; target=&quot;_NEW&quot;&gt;\nhttp://i220.photobucket.com/albums/dd94/ItheplagueI/4-18.jpg&lt;/a&gt;\n &lt;a href=&quot;\nhttp://i220.photobucket.com/albums/dd94/ItheplagueI/2-22.jpg&quot; rel=&quot;nofollow&quot; target=&quot;_NEW&quot;&gt;\nhttp://i220.photobucket.com/albums/dd94/ItheplagueI/2-22.jpg&lt;/a&gt;\n\n\n\n                    *************************\n                    * The Substitute (2007) *\n                    *************************\n\n________________________\n   General Information  |  \n________________________|\n_______________________________________________________________\nType                    : Movie                                \nFormat                  : AVI                                  \nFormat/Info             : Audio Video Interleave               \nFile size               : 704Mb                                \nDuration                : 1h 32mn                              \nLanguage                : English\nSource                  : Dvd NTSC                              \nSubtitles               : English                           \nGenre                   : Comedy | Fantasy | Horror | Sci-Fi                   \nIMDB Link               : http://www.imdb.com/title/tt0478394/ \nRating                  : 6.2/10                               \n_______________________________________________________________\n________________________________________________________________\nVideo\nFormat                           : MPEG-4 Visual\nFormat profile                   : Streaming Video@L1\nFormat settings, BVOP            : Yes\nFormat settings, QPel            : No\nFormat settings, GMC             : No warppoints\nFormat settings, Matrix          : Default\nMuxing mode                      : Packed bitstream\nCodec ID                         : XVID\nCodec ID/Hint                    : XviD\nDuration                         : 1h 32mn\nBit rate                         : 927 Kbps\nWidth                            : 640 pixels\nHeight                           : 272 pixels\nDisplay aspect ratio             : 2.35\nFrame rate                       : 23.976 fps\nResolution                       : 24 bits\nColorimetry                      : 4:2:0\nScan type                        : Progressive\nBits/(Pixel*Frame)               : 0.222\nStream size                      : 613 MiB (87%)          \n_______________________________________________________________\nAudio\nFormat                           : MPEG Audio\nFormat version                   : Version 1\nFormat profile                   : Layer 3\nCodec ID                         : 55\nCodec ID/Hint                    : MP3\nDuration                         : 1h 32mn\nBit rate mode                    : Constant\nBit rate                         : 128 Kbps\nMinimum bit rate                 : 128 Kbps\nChannel(s)                       : 2 channels\nSampling rate                    : 48.0 KHz\nResolution                       : 16 bits\nStream size                      : 84.6 MiB (12%)\nAlignment                        : Aligned on interleaves\nInterleave, duration             : 42 ms (1.00 video frame)\nInterleave, preload duration     : 504 ms\nWriting library                  : LAME3.98 \nEncoding settings                : CBR                       \n_______________________________________________________________\n________________\n   Description  \n________________\n_______________________________________________________________\n6th Grade gets a new substitute teacher. She wants to train \nthe class for an international competition in Paris. But \nsomething isn&amp;#039;t right. How is she able read kids&amp;#039; minds? \nWhy is she so mean? And how does she manage to convince \neveryone&amp;#039;s parents she is so great when the whole class \nknows she is really an alien?           \n_______________________________________________________________\n\n___________________\nNotes              \n___________________\n_______________________________________________________________\nBe aware People are starting to use my tag to create fake files\nMake sure its a real genuine release from me, I have never and \nwill never do Cams,Telesyncs,Telecine or RAR files.Try to check \n1337x.org to see if the file exist.\n \nFuck the fakers and enjoy my release.                   \n_______________________________________________________________\n___________________\n  Post Information \n___________________\n_________________________________\nPosted by............: Noir     \nPosted on............: 10/13/2008\n_________________________________","torrent":{"xt":"urn:btih:8f7b0f85fe3b0956c3ba4cc8516b6661a0d97d6d","amp;dn":"The+Substitute+%282007%29+%5BDvdRip%5D+%5BXvid%5D+%7B1337x%7D-Noir","amp;tr":["udp%3A%2F%2Ftracker.openbittorrent.com%3A80","udp%3A%2F%2Fopen.demonii.com%3A1337","udp%3A%2F%2Ftracker.coppersurfer.tk%3A6969","udp%3A%2F%2Fexodus.desync.com%3A6969"],"infoHash":"8f7b0f85fe3b0956c3ba4cc8516b6661a0d97d6d","infoHashBuffer":{"type":"Buffer","data":[143,123,15,133,254,59,9,86,195,186,76,200,81,107,102,97,160,217,125,109]},"announce":[],"urlList":[]}}